<svg xmlns="http://www.w3.org/2000/svg" width="512px" height="512px" viewBox="0 0 512 512" data-bbox="53.25449306550155 68 402.45185051713975 362.47366002029025" style="overflow: visible;">
    <rect data-uid="o-b6e9ec7f99fb4ae18afd93efebe4cc7e" data-fl-background="" x="0" y="0" width="512" height="512" fill="#000000"></rect>
    <g transform="matrix(0.56929612159729, 0, 0, 0.56929612159729, 85.29010009765625, -44.418914794921875)" fill="#fec934" data-uid="o-c4f3e635a5454324a57d6165a74b231e">
        <svg version="1.1" id="Calque_1"
            xmlns="http://www.w3.org/2000/svg" x="0px" y="0px" viewBox="0 0 595.28 841.89" enable-background="new 0 0 595.28 841.89" width="595.28" height="841.89" data-uid="o-396b6884bb4542c381f0d2c349195b75">
            <g data-uid="o-f6134b9b04bb4b6c9365f1601c951eab">
                <g data-uid="o-fbc064b0998d4017b68308839ae5c217">
                    <g data-uid="o-660041ef01624d628b5c6dfa1fd099d3">
                        <g data-uid="o-4bc8c023993842cbab1b4daecece8802">
                            <path class="st0" d="M499.77 371.71c-19.81 0-36.88 11.71-44.69 28.58h-62.56v41.32h62.56c7.81 16.87 24.88 28.57 44.69 28.57
					c27.2 0 49.23-22.04 49.23-49.24C549 393.75 526.96 371.71 499.77 371.71z M454.44 430c-5 0-9.05-4.05-9.05-9.05
					c0-5 4.05-9.05 9.05-9.05c5 0 9.05 4.05 9.05 9.05C463.49 425.94 459.44 430 454.44 430z M522.76 434.35l-22.65 13.41
					l-22.65-13.41v-26.82l22.65-13.41l22.65 13.41V434.35z" fill="#fec934" data-uid="o-275b6c8b9a4245438e082b40ae9db5cf"></path>
                        </g>
                        <g data-uid="o-ee55103e8264448e8e07b3237f2cc217">
                            <path class="st0" d="M188.14 400.28h-53.27c-7.81-16.87-24.87-28.58-44.69-28.58c-19.42 0-36.16 11.27-44.18 27.61h36.44
					l17.14 23.32l-17.14 23.32H47.82c8.57 14.48 24.31 24.23 42.36 24.23c19.82 0 36.88-11.71 44.69-28.57h53.27V400.28z
					 M139.41 430c-5 0-9.05-4.05-9.05-9.05c0-5 4.05-9.05 9.05-9.05s9.05 4.05 9.05 9.05C148.46 425.94 144.41 430 139.41 430z" fill="#fec934" data-uid="o-ef464465003e41d69e0a07e71492b60c"></path>
                        </g>
                    </g>
                </g>
                <g data-uid="o-284053e843a2488cb507a060ca2c0057">
                    <g data-uid="o-95acbe5142a4499cbe00c22c29e14b36">
                        <path class="st0" d="M433.79 380.24c-2.43 0-4.69-1.53-5.51-3.94c-19.11-56.2-71.85-93.95-131.25-93.95
				c-58.27 0-110.69 36.82-130.43 91.64c-1.05 2.91-4.21 4.54-7.18 3.61c-2.96-0.9-4.71-3.95-3.96-6.96l0.01-0.03
				c21.58-59.97 78.39-99.89 141.55-99.89c64.38 0 121.55 40.93 142.27 101.84c1.03 3.05-0.59 6.35-3.64 7.39
				C435.04 380.14 434.41 380.24 433.79 380.24z" fill="#fec934" data-uid="o-2d37075f43b44c34a796470345815454"></path>
                    </g>
                    <g data-uid="o-25e2bcd81fec491a9aa73cd8e71f7ec2">
                        <path class="st0" d="M297.04 571.29c-63.16 0-119.98-39.92-141.38-99.32l5.46-2.01l5.65-1.41l0.01 0.03
				c19.58 54.24 71.99 91.07 130.26 91.07c59.39 0 112.14-37.76 131.25-93.95c1.04-3.04 4.32-4.68 7.38-3.64
				c3.04 1.04 4.67 4.34 3.64 7.39C418.59 530.36 361.42 571.29 297.04 571.29z" fill="#fec934" data-uid="o-4a59385c86404fb6afa7e51a9a9a4c6b"></path>
                    </g>
                </g>
                <g data-uid="o-6534c2f29d4c4dc2a0d8c85f5390de88">
                    <g data-uid="o-4c611d04f95e405f8670abd961168561">
                        <path class="st1" d="M499.5 342.16c-2.01 0-3.97-1.04-5.04-2.91l-23.88-41.35l-30.55 17.64c-2.5 1.45-5.68 0.84-7.48-1.43
				c-7.93-10.03-16.97-19.2-26.88-27.24c-2.22-1.81-2.8-4.95-1.37-7.43l17.81-30.86L385.8 227.6l-17.62 30.52
				c-1.45 2.51-4.53 3.56-7.2 2.49c-11.9-4.75-24.31-8.17-36.89-10.15c-2.83-0.45-4.92-2.88-4.92-5.75v-35.59h-41.94v35.27
				c0 2.89-2.13 5.35-4.99 5.76c-12.65 1.81-25.1 5.06-37.02 9.64c-2.68 0.99-5.7-0.05-7.13-2.53l-17.8-30.83l-36.31 20.97
				l17.63 30.55c1.45 2.5 0.84 5.68-1.43 7.47c-10.05 7.94-19.21 16.98-27.23 26.88c-1.8 2.22-4.94 2.81-7.43 1.37l-30.86-17.82
				l-23.88 41.35c-1.61 2.78-5.17 3.76-7.95 2.13c-2.79-1.6-3.74-5.17-2.13-7.95L117.5 285c0.77-1.34 2.04-2.32 3.53-2.71
				c1.49-0.38 3.07-0.19 4.42 0.59l31.66 18.28c6.68-7.8 14.04-15.07 21.96-21.68L161 248.18c-1.61-2.78-0.65-6.35 2.13-7.95
				l46.39-26.79c1.33-0.78 2.93-0.97 4.42-0.59c1.49 0.4 2.76 1.37 3.53 2.71l18.26 31.63c9.71-3.43 19.72-6.03 29.87-7.78v-36.12
				c0-3.21 2.6-5.82 5.82-5.82H325c3.21 0 5.82 2.6 5.82 5.82v36.51c10.11 1.87 20.09 4.61 29.77 8.19l18.05-31.26
				c0.77-1.34 2.04-2.32 3.53-2.71c1.5-0.37 3.08-0.2 4.42 0.59l46.4 26.79c2.78 1.6 3.74 5.17 2.13 7.95l-18.27 31.66
				c7.81 6.69 15.07 14.06 21.67 21.96l31.29-18.06c2.78-1.62 6.34-0.65 7.95 2.13l26.79 46.39c1.61 2.78 0.66 6.34-2.13 7.95
				C501.49 341.91 500.49 342.16 499.5 342.16z" fill="#fec934" data-uid="o-491425bfb7ef42d1b1c433c4fb9fc0fd"></path>
                    </g>
                    <g data-uid="o-5ed7674bce9c450188e60f3887a69673">
                        <path class="st1" d="M325 644.51h-53.58c-3.21 0-5.82-2.6-5.82-5.82v-36.12c-10.15-1.75-20.16-4.35-29.87-7.78l-18.26 31.63
				c-0.77 1.34-2.04 2.32-3.53 2.71c-1.49 0.38-3.08 0.19-4.42-0.59l-46.39-26.79c-2.78-1.6-3.74-5.17-2.13-7.95l18.07-31.29
				c-7.91-6.61-15.27-13.88-21.96-21.68l-31.66 18.28c-1.34 0.78-2.93 0.97-4.42 0.59c-1.49-0.4-2.76-1.37-3.53-2.71l-26.79-46.39
				c-1.61-2.78-0.66-6.35 2.13-7.95c2.78-1.63 6.34-0.65 7.95 2.13l23.88 41.35l30.86-17.82c2.49-1.43 5.63-0.86 7.43 1.37
				c8.02 9.9 17.19 18.94 27.23 26.88c2.26 1.79 2.88 4.97 1.43 7.47l-17.63 30.55l36.31 20.97l17.8-30.83
				c1.43-2.49 4.45-3.54 7.13-2.53c11.92 4.58 24.37 7.82 37.02 9.64c2.87 0.41 4.99 2.87 4.99 5.76v35.27h41.94v-35.59
				c0-2.87 2.08-5.3 4.92-5.75c12.58-1.98 25-5.39 36.89-10.15c2.67-1.06 5.75-0.02 7.2 2.49l17.62 30.52l36.32-20.97l-17.81-30.86
				c-1.43-2.48-0.85-5.62 1.37-7.43c9.91-8.04 18.95-17.2 26.88-27.24c1.8-2.27 4.98-2.88 7.48-1.43l30.55 17.64l23.88-41.35
				c1.6-2.78 5.17-3.75 7.95-2.13c2.79 1.6 3.74 5.17 2.13 7.95l-26.79 46.39c-1.61 2.78-5.17 3.75-7.95 2.13l-31.29-18.06
				c-6.6 7.91-13.86 15.27-21.67 21.96l18.27 31.66c1.61 2.78 0.65 6.35-2.13 7.95l-46.4 26.79c-1.33 0.77-2.92 0.97-4.42 0.59
				c-1.49-0.4-2.76-1.37-3.53-2.71L360.59 594c-9.69 3.57-19.66 6.31-29.77 8.19v36.51C330.82 641.91 328.21 644.51 325 644.51z" fill="#fec934" data-uid="o-97b40ee3267f44a9b4439ccb035fc8ef"></path>
                    </g>
                </g>
                <g data-uid="o-15efa5c373954510869e1b8111455089">
                    <g data-uid="o-484ca8641f6b4077a283e5a644b1c895">
                        <g data-uid="o-1cc9c4f6b3974e54815a823c1a9a6b6c">
                            <path class="st1" d="M343.82 455.55c0 10.1 8.22 18.32 18.32 18.32c10.1 0 18.32-8.22 18.32-18.32v-88.61
					c0-0.4 0.01-0.91 0.03-1.48c0.09-3.52 0.28-10.85-3.23-14.45c-1.63-1.68-4.09-2.49-7.51-2.49c-5.58 0-9.85 1.55-13.98 3.05
					c-6.7 2.43-15.04 5.47-23.83-3.58c-8.17-8.42-18.36-7.22-24.37-2.55c-10.02 7.79-18.6 8.87-35.33 4.43
					c-9.71-2.58-14.12 1.23-20.78 7c-1.42 1.23-2.86 2.47-4.38 3.67c-8.19 6.5-14.11 3.59-18.87 1.26
					c-2.92-1.43-5.93-2.91-10.7-3.43c-4.68-0.5-9.25 0.98-12.84 4.2c-3.49 3.13-5.66 7.6-5.66 11.66v74.06
					c0 10.1 8.22 18.32 18.32 18.32c10.1 0 18.32-8.22 18.32-18.32v-46.29c0-3.21 2.61-5.82 5.82-5.82c3.21 0 5.82 2.61 5.82 5.82
					v46.29v4.59v2.68c0 10.1 8.22 18.32 18.32 18.32c10.1 0 18.32-8.22 18.32-18.32c0-0.12 0.03-0.22 0.03-0.34v-53.22
					c0-3.21 2.61-5.82 5.82-5.82c3.21 0 5.82 2.61 5.82 5.82v54.23c0.36 9.79 8.41 17.64 18.28 17.64c9.72 0 17.67-7.62 18.26-17.19
					v-54.68c0-3.21 2.61-5.82 5.82-5.82c3.21 0 5.82 2.61 5.82 5.82v53C343.78 455.18 343.82 455.36 343.82 455.55z" fill="#fec934" data-uid="o-8dcd166beca4427a98ec5a3806c19c7a"></path>
                        </g>
                        <g data-uid="o-cc5cf83437ea4c15b7e3f47382c83be4">
                            <path class="st1" d="M391.77 459.7c-2.03 14.56-14.53 25.81-29.64 25.81c-9.89 0-18.68-4.82-24.14-12.23
					c-5.46 7.41-14.24 12.23-24.14 12.23c-6.36 0-12.26-2.01-17.11-5.41v4.24c0 11.91 9.66 21.57 21.57 21.57h62.08
					c11.97 0 21.68-9.71 21.68-21.68V459.7H391.77z" fill="#fec934" data-uid="o-378d9e6d20c94dee8432fbde7e96e849"></path>
                        </g>
                    </g>
                    <g data-uid="o-18fa8daffeb1418ba9c2246793f41026">
                        <g data-uid="o-fb8c305e96874af89009a81136724e1c">
                            <path class="st1" fill="#fec934" data-type="circle" data-cx="297.45" data-cy="233.88" data-r="6.28" d="M297.45 233.88m-6.28 0a6.28 6.28 0 1 0 12.56 0a6.28 6.28 0 1 0 -12.56 0" data-uid="o-a9f2a3f4420540749741bfb4ea7298fa"></path>
                        </g>
                        <g data-uid="o-c4341eb8268041a08c52e281ac137af6">
                            <path class="st1" fill="#fec934" data-type="circle" data-cx="389.58" data-cy="263.54" data-r="6.28" d="M389.58 263.54m-6.28 0a6.28 6.28 0 1 0 12.56 0a6.28 6.28 0 1 0 -12.56 0" data-uid="o-b57f6db065934deaa4a736a946124805"></path>
                        </g>
                        <g data-uid="o-e10f70575ecb4b72aaaa9d499c62216f">
                            <path class="st1" fill="#fec934" data-type="circle" data-cx="207.76" data-cy="263.54" data-r="6.28" d="M207.76 263.54m-6.28 0a6.28 6.28 0 1 0 12.56 0a6.28 6.28 0 1 0 -12.56 0" data-uid="o-0e567c0755ad4b1bbe46a0cdcd942431"></path>
                        </g>
                        <g data-uid="o-b5b48a5666054a4f9f23549ca785c1d0">
                            <path class="st1" fill="#fec934" data-type="circle" data-cx="136.1" data-cy="337.58" data-r="6.28" d="M136.1 337.58m-6.28 0a6.28 6.28 0 1 0 12.56 0a6.28 6.28 0 1 0 -12.56 0" data-uid="o-fd5427fb772e4c728490b7a99978910a"></path>
                        </g>
                        <g data-uid="o-4878c27c08064a398cddbd550ebd16ea">
                            <path class="st1" fill="#fec934" data-type="circle" data-cx="455.01" data-cy="337.58" data-r="6.28" d="M455.01 337.58m-6.28 0a6.28 6.28 0 1 0 12.56 0a6.28 6.28 0 1 0 -12.56 0" data-uid="o-8f42532dbec94aa7a23b7e92128e5826"></path>
                        </g>
                    </g>
                    <g data-uid="o-e22a4247515a4551a219833617aa9d87">
                        <g data-uid="o-db65a5d4b5654ceeb734dd719fd69c3c">
                            <path class="st1" fill="#fec934" data-type="circle" data-cx="297.45" data-cy="608.12" data-r="6.28" d="M297.45 608.12m-6.28 0a6.28 6.28 0 1 0 12.56 0a6.28 6.28 0 1 0 -12.56 0" data-uid="o-44ee78acf1a24d77af5df24979e0468a"></path>
                        </g>
                        <g data-uid="o-710fe46652634aea9e9802bcd53eca21">
                            <path class="st1" fill="#fec934" data-type="circle" data-cx="389.58" data-cy="578.46" data-r="6.28" d="M389.58 578.46m-6.28 0a6.28 6.28 0 1 0 12.56 0a6.28 6.28 0 1 0 -12.56 0" data-uid="o-1b304647d0164456b54436c14bf01da8"></path>
                        </g>
                        <g data-uid="o-3555de50040e40f5b47809dcb2d09667">
                            <path class="st1" fill="#fec934" data-type="circle" data-cx="207.76" data-cy="578.46" data-r="6.28" d="M207.76 578.46m-6.28 0a6.28 6.28 0 1 0 12.56 0a6.28 6.28 0 1 0 -12.56 0" data-uid="o-6dd2133d4f134b70bbeff88486e20840"></path>
                        </g>
                        <g data-uid="o-acb46f157809441785baaa374853bb1c">
                            <path class="st1" fill="#fec934" data-type="circle" data-cx="136.1" data-cy="504.42" data-r="6.28" d="M136.1 504.42m-6.28 0a6.28 6.28 0 1 0 12.56 0a6.28 6.28 0 1 0 -12.56 0" data-uid="o-9909fbe388034c989c22f59c2323ae1d"></path>
                        </g>
                        <g data-uid="o-847dd29e7590456e9249e6cf6cf8af7a">
                            <path class="st1" fill="#fec934" data-type="circle" data-cx="455.01" data-cy="504.42" data-r="6.28" d="M455.01 504.42m-6.28 0a6.28 6.28 0 1 0 12.56 0a6.28 6.28 0 1 0 -12.56 0" data-uid="o-2d8b1195d86746589478aed1373ea15e"></path>
                        </g>
                    </g>
                </g>
            </g>
        </svg>
    </g>
    <path text="media-collections" fill="#fec934" space="preserve" text-anchor="middle" offset="0.5" font-scale="contain" font-size="18" font-family="Changa" transform="matrix(2.5039310455322266, 0, 0, 2.5039310455322266, 254.6556854248047, 429.4219970703125)" data-fl-textpath="" font-style="normal" font-weight="400" letter-spacing="2" data-uid="o-e9fbdd750efa4cdca38012bd58eee3b9" d="M-76.039-9.18Q-74.779-9.18 -74.131-8.793Q-73.483-8.406 -73.483-7.65L-73.483-7.65L-73.483 0L-75.283 0L-75.283-7.704L-77.191-7.704Q-77.983-7.704 -78.307-7.542Q-78.631-7.38 -78.703-6.948L-78.703-6.948L-78.703 0L-80.503 0L-80.503-7.704L-82.411-7.704Q-83.293-7.704 -83.617-7.488Q-83.941-7.272 -83.941-6.66L-83.941-6.66L-83.941 0L-85.741 0L-85.741-9L-84.913-9L-84.427-8.1Q-83.779-8.658 -83.014-8.919Q-82.249-9.18 -81.259-9.18L-81.259-9.18Q-79.405-9.18 -78.883-8.352L-78.883-8.352Q-77.713-9.18 -76.039-9.18L-76.039-9.18ZM-65.057-1.242Q-64.319-1.242 -63.617-1.341Q-62.915-1.44 -61.943-1.674L-61.943-1.674L-61.709-0.36Q-62.375-0.108 -63.356 0.036Q-64.337 0.18 -65.381 0.18L-65.381 0.18Q-66.785 0.18 -67.523-0.225Q-68.261-0.63 -68.567-1.62Q-68.873-2.61 -68.873-4.5L-68.873-4.5Q-68.873-6.318 -68.522-7.317Q-68.171-8.316 -67.361-8.748Q-66.551-9.18 -65.075-9.18L-65.075-9.18Q-63.617-9.18 -62.852-8.946Q-62.087-8.712 -61.781-8.145Q-61.475-7.578 -61.475-6.48L-61.475-6.48Q-61.475-5.166 -61.853-4.59Q-62.231-4.014 -63.338-3.816Q-64.445-3.618 -66.983-3.618L-66.983-3.618L-66.983-1.44Q-66.263-1.242 -65.057-1.242L-65.057-1.242ZM-65.489-7.704Q-66.353-7.704 -66.668-7.488Q-66.983-7.272 -66.983-6.66L-66.983-6.66L-66.983-4.788L-64.607-4.788Q-63.725-4.788 -63.41-5.004Q-63.095-5.22 -63.095-5.832L-63.095-5.832L-63.095-7.704L-65.489-7.704ZM-51.393-11.97L-49.593-12.186L-49.593 0L-50.421 0L-50.817-0.72Q-51.177-0.162 -51.852 0.054Q-52.527 0.27 -53.715 0.27L-53.715 0.27Q-55.155 0.27 -55.866-0.108Q-56.577-0.486 -56.856-1.476Q-57.135-2.466 -57.135-4.5L-57.135-4.5Q-57.135-6.408 -56.865-7.398Q-56.595-8.388 -55.929-8.784Q-55.263-9.18 -53.967-9.18L-53.967-9.18Q-53.049-9.18 -52.428-9.081Q-51.807-8.982 -51.393-8.748L-51.393-8.748L-51.393-11.97ZM-51.393-1.656L-51.393-7.704L-54.417-7.704Q-54.903-7.704 -55.074-7.614Q-55.245-7.524 -55.245-7.254L-55.245-7.254L-55.245-1.206L-52.221-1.206Q-51.735-1.206 -51.564-1.296Q-51.393-1.386 -51.393-1.656L-51.393-1.656ZM-44.551 0L-44.551 0ZM-44.353-8.874L-42.553-9.144L-42.553 0L-44.353 0L-44.353-8.874ZM-43.435-10.566Q-44.101-10.566 -44.326-10.791Q-44.551-11.016 -44.551-11.646L-44.551-11.646Q-44.551-12.294 -44.317-12.528Q-44.083-12.762 -43.435-12.762L-43.435-12.762Q-42.805-12.762 -42.58-12.528Q-42.355-12.294 -42.355-11.646L-42.355-11.646Q-42.355-11.016 -42.571-10.791Q-42.787-10.566 -43.435-10.566L-43.435-10.566ZM-33.965-9.18Q-32.723-9.18 -32.003-8.937Q-31.283-8.694 -30.968-8.145Q-30.653-7.596 -30.653-6.66L-30.653-6.66L-30.653 0L-31.481 0L-31.967-0.9Q-32.615-0.342 -33.398-0.081Q-34.181 0.18 -35.189 0.18L-35.189 0.18Q-36.683 0.18 -37.313-0.441Q-37.943-1.062 -37.943-2.52L-37.943-2.52Q-37.943-3.834 -37.583-4.41Q-37.223-4.986 -36.17-5.184Q-35.117-5.382 -32.723-5.382L-32.723-5.382L-32.453-5.382L-32.453-7.56Q-33.119-7.758 -34.271-7.758L-34.271-7.758Q-35.711-7.758 -37.313-7.326L-37.313-7.326L-37.547-8.64Q-36.881-8.874 -35.891-9.027Q-34.901-9.18 -33.965-9.18L-33.965-9.18ZM-33.893-1.206Q-33.047-1.206 -32.75-1.422Q-32.453-1.638 -32.453-2.25L-32.453-2.25L-32.453-4.212L-34.847-4.212Q-35.693-4.212 -35.999-3.996Q-36.305-3.78 -36.305-3.168L-36.305-3.168L-36.305-1.206L-33.893-1.206ZM-26.529-5.094Q-26.529-5.49 -26.331-5.598Q-26.133-5.706 -25.611-5.706L-25.611-5.706L-21.417-5.706L-21.417-4.806Q-21.417-4.41 -21.615-4.302Q-21.813-4.194 -22.335-4.194L-22.335-4.194L-26.529-4.194L-26.529-5.094ZM-14.503 0.18Q-15.835 0.18 -16.519-0.216Q-17.203-0.612 -17.473-1.593Q-17.743-2.574 -17.743-4.5L-17.743-4.5Q-17.743-6.426 -17.473-7.416Q-17.203-8.406 -16.519-8.793Q-15.835-9.18 -14.503-9.18L-14.503-9.18Q-13.765-9.18 -12.964-9.09Q-12.163-9 -11.587-8.856L-11.587-8.856L-11.803-7.488Q-13.099-7.758 -14.305-7.758L-14.305-7.758Q-15.187-7.758 -15.529-7.425Q-15.871-7.092 -15.871-6.246L-15.871-6.246L-15.871-1.44Q-15.223-1.242 -14.035-1.242L-14.035-1.242Q-13.459-1.242 -12.91-1.341Q-12.361-1.44 -11.587-1.674L-11.587-1.674L-11.389-0.36Q-12.001-0.108 -12.82 0.036Q-13.639 0.18 -14.503 0.18L-14.503 0.18ZM-3.683 0.18Q-5.303 0.18 -6.122-0.207Q-6.941-0.594 -7.265-1.584Q-7.589-2.574 -7.589-4.5L-7.589-4.5Q-7.589-6.426 -7.265-7.416Q-6.941-8.406 -6.122-8.793Q-5.303-9.18 -3.683-9.18L-3.683-9.18Q-2.045-9.18 -1.235-8.793Q-0.425-8.406 -0.101-7.425Q 0.223-6.444  0.223-4.5L 0.223-4.5Q 0.223-2.574 -0.101-1.584Q-0.425-0.594 -1.244-0.207Q-2.063 0.18 -3.683 0.18L-3.683 0.18ZM-5.717-1.296L-2.513-1.296Q-1.991-1.296 -1.82-1.386Q-1.649-1.476 -1.649-1.746L-1.649-1.746L-1.649-7.704L-4.853-7.704Q-5.375-7.704 -5.546-7.614Q-5.717-7.524 -5.717-7.254L-5.717-7.254L-5.717-1.296ZM 6.633-1.332Q 6.993-1.278  7.461-1.242L 7.461-1.242L 7.353-0.018Q 6.687 0.18  6.165 0.18L 6.165 0.18Q 5.481 0.18  5.157-0.153Q 4.833-0.486  4.833-1.17L 4.833-1.17L 4.833-11.7L 6.633-11.97L 6.633-1.332ZM 13.511-1.332Q 13.871-1.278  14.339-1.242L 14.339-1.242L 14.231-0.018Q 13.565 0.18  13.043 0.18L 13.043 0.18Q 12.359 0.18  12.035-0.153Q 11.711-0.486  11.711-1.17L 11.711-1.17L 11.711-11.7L 13.511-11.97L 13.511-1.332ZM 21.955-1.242Q 22.693-1.242  23.395-1.341Q 24.097-1.44  25.069-1.674L 25.069-1.674L 25.303-0.36Q 24.637-0.108  23.656 0.036Q 22.675 0.18  21.631 0.18L 21.631 0.18Q 20.227 0.18  19.489-0.225Q 18.751-0.63  18.445-1.62Q 18.139-2.61  18.139-4.5L 18.139-4.5Q 18.139-6.318  18.49-7.317Q 18.841-8.316  19.651-8.748Q 20.461-9.18  21.937-9.18L 21.937-9.18Q 23.395-9.18  24.16-8.946Q 24.925-8.712  25.231-8.145Q 25.537-7.578  25.537-6.48L 25.537-6.48Q 25.537-5.166  25.159-4.59Q 24.781-4.014  23.674-3.816Q 22.567-3.618  20.029-3.618L 20.029-3.618L 20.029-1.44Q 20.749-1.242  21.955-1.242L 21.955-1.242ZM 21.523-7.704Q 20.659-7.704  20.344-7.488Q 20.029-7.272  20.029-6.66L 20.029-6.66L 20.029-4.788L 22.405-4.788Q 23.287-4.788  23.602-5.004Q 23.917-5.22  23.917-5.832L 23.917-5.832L 23.917-7.704L 21.523-7.704ZM 33.117 0.18Q 31.785 0.18  31.101-0.216Q 30.417-0.612  30.147-1.593Q 29.877-2.574  29.877-4.5L 29.877-4.5Q 29.877-6.426  30.147-7.416Q 30.417-8.406  31.101-8.793Q 31.785-9.18  33.117-9.18L 33.117-9.18Q 33.855-9.18  34.656-9.09Q 35.457-9  36.033-8.856L 36.033-8.856L 35.817-7.488Q 34.521-7.758  33.315-7.758L 33.315-7.758Q 32.433-7.758  32.091-7.425Q 31.749-7.092  31.749-6.246L 31.749-6.246L 31.749-1.44Q 32.397-1.242  33.585-1.242L 33.585-1.242Q 34.161-1.242  34.71-1.341Q 35.259-1.44  36.033-1.674L 36.033-1.674L 36.231-0.36Q 35.619-0.108  34.8 0.036Q 33.981 0.18  33.117 0.18L 33.117 0.18ZM 44.513-7.758L 42.911-7.758L 42.911-1.332Q 43.559-1.26  44.189-1.242L 44.189-1.242L 44.081-0.018Q 43.073 0.18  42.443 0.18L 42.443 0.18Q 41.759 0.18  41.435-0.153Q 41.111-0.486  41.111-1.17L 41.111-1.17L 41.111-7.758L 39.851-7.758L 39.851-9L 41.111-9L 41.111-10.926L 42.911-11.376L 42.911-9L 44.513-9L 44.513-7.758ZM 48.745 0L 48.745 0ZM 48.943-8.874L 50.743-9.144L 50.743 0L 48.943 0L 48.943-8.874ZM 49.861-10.566Q 49.195-10.566  48.97-10.791Q 48.745-11.016  48.745-11.646L 48.745-11.646Q 48.745-12.294  48.979-12.528Q 49.213-12.762  49.861-12.762L 49.861-12.762Q 50.491-12.762  50.716-12.528Q 50.941-12.294  50.941-11.646L 50.941-11.646Q 50.941-11.016  50.725-10.791Q 50.509-10.566  49.861-10.566L 49.861-10.566ZM 59.349 0.18Q 57.729 0.18  56.91-0.207Q 56.091-0.594  55.767-1.584Q 55.443-2.574  55.443-4.5L 55.443-4.5Q 55.443-6.426  55.767-7.416Q 56.091-8.406  56.91-8.793Q 57.729-9.18  59.349-9.18L 59.349-9.18Q 60.987-9.18  61.797-8.793Q 62.607-8.406  62.931-7.425Q 63.255-6.444  63.255-4.5L 63.255-4.5Q 63.255-2.574  62.931-1.584Q 62.607-0.594  61.788-0.207Q 60.969 0.18  59.349 0.18L 59.349 0.18ZM 57.315-1.296L 60.519-1.296Q 61.041-1.296  61.212-1.386Q 61.383-1.476  61.383-1.746L 61.383-1.746L 61.383-7.704L 58.179-7.704Q 57.657-7.704  57.486-7.614Q 57.315-7.524  57.315-7.254L 57.315-7.254L 57.315-1.296ZM 67.955 0L 67.955-9L 68.783-9L 69.269-8.1Q 69.953-8.658  70.763-8.919Q 71.573-9.18  72.617-9.18L 72.617-9.18Q 73.877-9.18  74.525-8.793Q 75.173-8.406  75.173-7.65L 75.173-7.65L 75.173 0L 73.373 0L 73.373-7.704L 71.285-7.704Q 70.403-7.704  70.079-7.488Q 69.755-7.272  69.755-6.66L 69.755-6.66L 69.755 0L 67.955 0ZM 79.711-6.588Q 79.711-7.974  80.53-8.622Q 81.349-9.27  83.113-9.27L 83.113-9.27Q 84.679-9.27  86.101-8.874L 86.101-8.874L 85.849-7.56Q 85.399-7.686  84.787-7.767Q 84.175-7.848  83.653-7.848L 83.653-7.848Q 82.573-7.848  81.601-7.686L 81.601-7.686L 81.601-5.562Q 83.761-5.256  84.778-4.941Q 85.795-4.626  86.173-4.095Q 86.551-3.564  86.551-2.538L 86.551-2.538Q 86.551-1.512  86.182-0.9Q 85.813-0.288  84.985-0.009Q 84.157 0.27  82.771 0.27L 82.771 0.27Q 81.223 0.27  79.513-0.252L 79.513-0.252L 79.801-1.692Q 81.187-1.152  82.753-1.152L 82.753-1.152Q 83.293-1.152  83.707-1.206Q 84.121-1.26  84.661-1.404L 84.661-1.404L 84.661-3.528Q 82.339-3.852  81.349-4.158Q 80.359-4.464  80.035-4.977Q 79.711-5.49  79.711-6.588L 79.711-6.588Z" style=""></path>
</svg>